G75*
G70*
%OFA0B0*%
%FSLAX24Y24*%
%IPPOS*%
%LPD*%
%AMOC8*
5,1,8,0,0,1.08239X$1,22.5*
%
%ADD10C,0.0520*%
%ADD11OC8,0.0600*%
%ADD12C,0.0680*%
%ADD13OC8,0.0710*%
%ADD14C,0.1497*%
%ADD15C,0.0600*%
%ADD16C,0.0595*%
%ADD17C,0.0480*%
D10*
X006713Y001853D02*
X007153Y001853D01*
X007153Y003853D02*
X006713Y003853D01*
D11*
X013433Y010853D03*
X013933Y011853D03*
X017433Y011853D03*
X017433Y010853D03*
X021433Y011853D03*
X021933Y015853D03*
X022433Y016603D03*
X022933Y015853D03*
X020933Y018353D03*
X020933Y020853D03*
X019933Y020853D03*
X019933Y022853D03*
X020933Y022853D03*
X020933Y025853D03*
X019933Y025853D03*
X019933Y027853D03*
X020933Y027853D03*
X024933Y027853D03*
X025933Y027853D03*
X025933Y025853D03*
X024933Y025853D03*
X024933Y022853D03*
X025933Y022853D03*
X025933Y020853D03*
X024933Y020853D03*
X024933Y018353D03*
X029933Y020853D03*
X029933Y022853D03*
X029933Y025853D03*
X029933Y027853D03*
X015933Y027853D03*
X014933Y027853D03*
X014933Y025853D03*
X015933Y025853D03*
X015933Y022853D03*
X014933Y022853D03*
X014933Y020853D03*
X015933Y020853D03*
X010933Y020853D03*
X009933Y020853D03*
X009933Y022853D03*
X010933Y022853D03*
X010933Y025853D03*
X009933Y025853D03*
X009933Y027853D03*
X010933Y027853D03*
X005933Y027853D03*
X004933Y027853D03*
X004933Y025853D03*
X005933Y025853D03*
X005933Y022853D03*
X004933Y022853D03*
X004933Y020853D03*
X005933Y020853D03*
X005933Y018353D03*
X008433Y016353D03*
X008433Y015353D03*
X007433Y015353D03*
X009933Y018353D03*
X009933Y011853D03*
X000933Y020853D03*
X000933Y022853D03*
X000933Y025853D03*
X000933Y027853D03*
D12*
X001433Y028553D02*
X001433Y029153D01*
X002433Y029153D02*
X002433Y028553D01*
X003433Y028553D02*
X003433Y029153D01*
X004433Y029153D02*
X004433Y028553D01*
X006433Y028553D02*
X006433Y029153D01*
X007433Y029153D02*
X007433Y028553D01*
X008433Y028553D02*
X008433Y029153D01*
X009433Y029153D02*
X009433Y028553D01*
X011433Y028553D02*
X011433Y029153D01*
X012433Y029153D02*
X012433Y028553D01*
X013433Y028553D02*
X013433Y029153D01*
X014433Y029153D02*
X014433Y028553D01*
X016433Y028553D02*
X016433Y029153D01*
X017433Y029153D02*
X017433Y028553D01*
X018433Y028553D02*
X018433Y029153D01*
X019433Y029153D02*
X019433Y028553D01*
X021433Y028553D02*
X021433Y029153D01*
X022433Y029153D02*
X022433Y028553D01*
X023433Y028553D02*
X023433Y029153D01*
X024433Y029153D02*
X024433Y028553D01*
X026433Y028553D02*
X026433Y029153D01*
X027433Y029153D02*
X027433Y028553D01*
X028433Y028553D02*
X028433Y029153D01*
X029433Y029153D02*
X029433Y028553D01*
X029433Y024153D02*
X029433Y023553D01*
X028433Y023553D02*
X028433Y024153D01*
X027433Y024153D02*
X027433Y023553D01*
X026433Y023553D02*
X026433Y024153D01*
X024433Y024153D02*
X024433Y023553D01*
X023433Y023553D02*
X023433Y024153D01*
X022433Y024153D02*
X022433Y023553D01*
X021433Y023553D02*
X021433Y024153D01*
X019433Y024153D02*
X019433Y023553D01*
X018433Y023553D02*
X018433Y024153D01*
X017433Y024153D02*
X017433Y023553D01*
X016433Y023553D02*
X016433Y024153D01*
X014433Y024153D02*
X014433Y023553D01*
X013433Y023553D02*
X013433Y024153D01*
X012433Y024153D02*
X012433Y023553D01*
X011433Y023553D02*
X011433Y024153D01*
X009433Y024153D02*
X009433Y023553D01*
X008433Y023553D02*
X008433Y024153D01*
X007433Y024153D02*
X007433Y023553D01*
X006433Y023553D02*
X006433Y024153D01*
X004433Y024153D02*
X004433Y023553D01*
X003433Y023553D02*
X003433Y024153D01*
X002433Y024153D02*
X002433Y023553D01*
X001433Y023553D02*
X001433Y024153D01*
X010433Y009153D02*
X010433Y008553D01*
X011433Y008553D02*
X011433Y009153D01*
X012433Y009153D02*
X012433Y008553D01*
X012433Y007153D02*
X012433Y006553D01*
X011433Y006553D02*
X011433Y007153D01*
X010433Y007153D02*
X010433Y006553D01*
X014433Y006553D02*
X014433Y007153D01*
X015433Y007153D02*
X015433Y006553D01*
X016433Y006553D02*
X016433Y007153D01*
X016433Y008553D02*
X016433Y009153D01*
X015433Y009153D02*
X015433Y008553D01*
X014433Y008553D02*
X014433Y009153D01*
X018433Y009153D02*
X018433Y008553D01*
X019433Y008553D02*
X019433Y009153D01*
X020433Y009153D02*
X020433Y008553D01*
X020433Y007153D02*
X020433Y006553D01*
X019433Y006553D02*
X019433Y007153D01*
X018433Y007153D02*
X018433Y006553D01*
D13*
X018433Y021853D03*
X017433Y021853D03*
X013433Y021853D03*
X012433Y021853D03*
X008433Y021853D03*
X007433Y021853D03*
X003433Y021853D03*
X002433Y021853D03*
X002433Y026853D03*
X003433Y026853D03*
X007433Y026853D03*
X008433Y026853D03*
X012433Y026853D03*
X013433Y026853D03*
X017433Y026853D03*
X018433Y026853D03*
X022433Y026853D03*
X023433Y026853D03*
X027433Y026853D03*
X028433Y026853D03*
X028433Y021853D03*
X027433Y021853D03*
X023433Y021853D03*
X022433Y021853D03*
D14*
X027933Y017353D03*
X027933Y002353D03*
X002933Y017353D03*
D15*
X002433Y013613D02*
X002433Y013093D01*
X001433Y013093D02*
X001433Y013613D01*
X003433Y013613D02*
X003433Y013093D01*
X004433Y013093D02*
X004433Y013613D01*
X005433Y013613D02*
X005433Y013093D01*
X006433Y013093D02*
X006433Y013613D01*
X007433Y013613D02*
X007433Y013093D01*
X008433Y013093D02*
X008433Y013613D01*
X008433Y010613D02*
X008433Y010093D01*
X008433Y009113D02*
X008433Y008593D01*
X007433Y008593D02*
X007433Y009113D01*
X007433Y010093D02*
X007433Y010613D01*
X006433Y010613D02*
X006433Y010093D01*
X006433Y009113D02*
X006433Y008593D01*
X005433Y008593D02*
X005433Y009113D01*
X005433Y010093D02*
X005433Y010613D01*
X004433Y010613D02*
X004433Y010093D01*
X004433Y009113D02*
X004433Y008593D01*
X003433Y008593D02*
X003433Y009113D01*
X003433Y010093D02*
X003433Y010613D01*
X002433Y010613D02*
X002433Y010093D01*
X002433Y009113D02*
X002433Y008593D01*
X001433Y008593D02*
X001433Y009113D01*
X001433Y010093D02*
X001433Y010613D01*
X001433Y006113D02*
X001433Y005593D01*
X002433Y005593D02*
X002433Y006113D01*
X003433Y006113D02*
X003433Y005593D01*
X004433Y005593D02*
X004433Y006113D01*
X005433Y006113D02*
X005433Y005593D01*
X006433Y005593D02*
X006433Y006113D01*
X007433Y006113D02*
X007433Y005593D01*
X008433Y005593D02*
X008433Y006113D01*
X008933Y004613D02*
X008933Y004093D01*
X009933Y004093D02*
X009933Y004613D01*
X010933Y004613D02*
X010933Y004093D01*
X011933Y004093D02*
X011933Y004613D01*
X012933Y004613D02*
X012933Y004093D01*
X013933Y004093D02*
X013933Y004613D01*
X014933Y004613D02*
X014933Y004093D01*
X015933Y004093D02*
X015933Y004613D01*
X016933Y004613D02*
X016933Y004093D01*
X017933Y004093D02*
X017933Y004613D01*
X018933Y004613D02*
X018933Y004093D01*
X019933Y004093D02*
X019933Y004613D01*
X020933Y004613D02*
X020933Y004093D01*
X021933Y004093D02*
X021933Y004613D01*
X022433Y005593D02*
X022433Y006113D01*
X023433Y006113D02*
X023433Y005593D01*
X024433Y005593D02*
X024433Y006113D01*
X025433Y006113D02*
X025433Y005593D01*
X026433Y005593D02*
X026433Y006113D01*
X027433Y006113D02*
X027433Y005593D01*
X028433Y005593D02*
X028433Y006113D01*
X029433Y006113D02*
X029433Y005593D01*
X029433Y008593D02*
X029433Y009113D01*
X029433Y010093D02*
X029433Y010613D01*
X028433Y010613D02*
X028433Y010093D01*
X028433Y009113D02*
X028433Y008593D01*
X027433Y008593D02*
X027433Y009113D01*
X027433Y010093D02*
X027433Y010613D01*
X026433Y010613D02*
X026433Y010093D01*
X026433Y009113D02*
X026433Y008593D01*
X025433Y008593D02*
X025433Y009113D01*
X025433Y010093D02*
X025433Y010613D01*
X024433Y010613D02*
X024433Y010093D01*
X024433Y009113D02*
X024433Y008593D01*
X023433Y008593D02*
X023433Y009113D01*
X023433Y010093D02*
X023433Y010613D01*
X022433Y010613D02*
X022433Y010093D01*
X022433Y009113D02*
X022433Y008593D01*
X022433Y013093D02*
X022433Y013613D01*
X023433Y013613D02*
X023433Y013093D01*
X024433Y013093D02*
X024433Y013613D01*
X025433Y013613D02*
X025433Y013093D01*
X026433Y013093D02*
X026433Y013613D01*
X027433Y013613D02*
X027433Y013093D01*
X028433Y013093D02*
X028433Y013613D01*
X029433Y013613D02*
X029433Y013093D01*
X021933Y001613D02*
X021933Y001093D01*
X020933Y001093D02*
X020933Y001613D01*
X019933Y001613D02*
X019933Y001093D01*
X018933Y001093D02*
X018933Y001613D01*
X017933Y001613D02*
X017933Y001093D01*
X016933Y001093D02*
X016933Y001613D01*
X015933Y001613D02*
X015933Y001093D01*
X014933Y001093D02*
X014933Y001613D01*
X013933Y001613D02*
X013933Y001093D01*
X012933Y001093D02*
X012933Y001613D01*
X011933Y001613D02*
X011933Y001093D01*
X010933Y001093D02*
X010933Y001613D01*
X009933Y001613D02*
X009933Y001093D01*
X008933Y001093D02*
X008933Y001613D01*
D16*
X010933Y014353D03*
X011933Y014353D03*
X012933Y014353D03*
X013933Y014353D03*
X014933Y014353D03*
X015933Y014353D03*
X016933Y014353D03*
X017933Y014353D03*
X018933Y014353D03*
X019933Y014353D03*
X019933Y019353D03*
X018933Y019353D03*
X017933Y019353D03*
X016933Y019353D03*
X015933Y019353D03*
X014933Y019353D03*
X013933Y019353D03*
X012933Y019353D03*
X011933Y019353D03*
X010933Y019353D03*
D17*
X003933Y004853D03*
X005433Y002853D03*
X005933Y003353D03*
X006933Y004353D03*
X007933Y004353D03*
X007933Y004853D03*
X010433Y005853D03*
X011433Y007853D03*
X011933Y007853D03*
X013433Y007353D03*
X013433Y006353D03*
X012933Y005853D03*
X014933Y005853D03*
X016933Y005853D03*
X017433Y005353D03*
X017933Y005353D03*
X018433Y005853D03*
X020433Y005853D03*
X021433Y007353D03*
X021433Y009353D03*
X022433Y011353D03*
X021433Y013353D03*
X020433Y012853D03*
X018433Y010853D03*
X016933Y012353D03*
X016433Y011353D03*
X016433Y010353D03*
X015433Y010353D03*
X014433Y010853D03*
X014933Y011853D03*
X012933Y011853D03*
X012433Y012853D03*
X010933Y011353D03*
X010433Y011353D03*
X009433Y011353D03*
X010933Y010353D03*
X011433Y010353D03*
X012433Y010853D03*
X009933Y013353D03*
X009933Y014853D03*
X010933Y016353D03*
X012933Y016353D03*
X013933Y016353D03*
X014933Y016353D03*
X016933Y017353D03*
X017933Y017853D03*
X018433Y019853D03*
X018433Y020853D03*
X017933Y022853D03*
X016433Y022353D03*
X015933Y021853D03*
X013933Y020853D03*
X013433Y019853D03*
X012433Y020853D03*
X011933Y020353D03*
X012433Y018853D03*
X009433Y021853D03*
X010433Y022353D03*
X008933Y019853D03*
X007433Y016853D03*
X006433Y016853D03*
X006433Y015853D03*
X006933Y014853D03*
X004933Y015853D03*
X004433Y014853D03*
X002433Y014853D03*
X001933Y014853D03*
X001433Y014853D03*
X001433Y012353D03*
X003433Y011853D03*
X007433Y011353D03*
X007933Y007853D03*
X004433Y007353D03*
X003933Y007353D03*
X002433Y007353D03*
X007433Y002353D03*
X007933Y001353D03*
X013433Y002853D03*
X013933Y003353D03*
X014433Y002853D03*
X017433Y003353D03*
X018433Y002353D03*
X021933Y002853D03*
X022933Y003353D03*
X017433Y007853D03*
X017433Y013853D03*
X016933Y015353D03*
X015433Y013853D03*
X021433Y020353D03*
X021933Y020353D03*
X022433Y020853D03*
X020933Y021853D03*
X022433Y022853D03*
X024433Y021853D03*
X025433Y019853D03*
X023433Y018353D03*
X022933Y018353D03*
X023433Y017353D03*
X025433Y016353D03*
X026933Y014853D03*
X026933Y011853D03*
X022933Y014353D03*
X025433Y025353D03*
X023933Y026353D03*
X022933Y027353D03*
X021933Y026353D03*
X021433Y026353D03*
X019933Y026853D03*
X019433Y027353D03*
X018433Y027853D03*
X017933Y027353D03*
X018433Y025853D03*
X015433Y027353D03*
X013433Y027853D03*
X011933Y026353D03*
X012433Y025353D03*
X012933Y025353D03*
X011933Y024853D03*
X011433Y024853D03*
X008933Y024853D03*
X007433Y025353D03*
X007933Y026353D03*
X008433Y027853D03*
X005433Y023853D03*
X003933Y025353D03*
X005433Y019853D03*
X004433Y019353D03*
X001433Y019853D03*
X028433Y027853D03*
M02*
