G75*
G70*
%OFA0B0*%
%FSLAX24Y24*%
%IPPOS*%
%LPD*%
%AMOC8*
5,1,8,0,0,1.08239X$1,22.5*
%
%ADD10C,0.0440*%
%ADD11OC8,0.0520*%
%ADD12C,0.0600*%
%ADD13OC8,0.0630*%
%ADD14C,0.0520*%
%ADD15C,0.0515*%
%ADD16C,0.0100*%
%ADD17C,0.0400*%
D10*
X023567Y001853D02*
X024007Y001853D01*
X024007Y003853D02*
X023567Y003853D01*
D11*
X017287Y010853D03*
X016787Y011853D03*
X013287Y011853D03*
X013287Y010853D03*
X009287Y011853D03*
X008787Y015853D03*
X008287Y016603D03*
X007787Y015853D03*
X009787Y018353D03*
X009787Y020853D03*
X010787Y020853D03*
X010787Y022853D03*
X009787Y022853D03*
X009787Y025853D03*
X010787Y025853D03*
X010787Y027853D03*
X009787Y027853D03*
X005787Y027853D03*
X004787Y027853D03*
X004787Y025853D03*
X005787Y025853D03*
X005787Y022853D03*
X004787Y022853D03*
X004787Y020853D03*
X005787Y020853D03*
X005787Y018353D03*
X000787Y020853D03*
X000787Y022853D03*
X000787Y025853D03*
X000787Y027853D03*
X014787Y027853D03*
X015787Y027853D03*
X015787Y025853D03*
X014787Y025853D03*
X014787Y022853D03*
X015787Y022853D03*
X015787Y020853D03*
X014787Y020853D03*
X019787Y020853D03*
X020787Y020853D03*
X020787Y022853D03*
X019787Y022853D03*
X019787Y025853D03*
X020787Y025853D03*
X020787Y027853D03*
X019787Y027853D03*
X024787Y027853D03*
X025787Y027853D03*
X025787Y025853D03*
X024787Y025853D03*
X024787Y022853D03*
X025787Y022853D03*
X025787Y020853D03*
X024787Y020853D03*
X024787Y018353D03*
X022287Y016353D03*
X022287Y015353D03*
X023287Y015353D03*
X020787Y018353D03*
X020787Y011853D03*
X029787Y020853D03*
X029787Y022853D03*
X029787Y025853D03*
X029787Y027853D03*
D12*
X029287Y028553D02*
X029287Y029153D01*
X028287Y029153D02*
X028287Y028553D01*
X027287Y028553D02*
X027287Y029153D01*
X026287Y029153D02*
X026287Y028553D01*
X024287Y028553D02*
X024287Y029153D01*
X023287Y029153D02*
X023287Y028553D01*
X022287Y028553D02*
X022287Y029153D01*
X021287Y029153D02*
X021287Y028553D01*
X019287Y028553D02*
X019287Y029153D01*
X018287Y029153D02*
X018287Y028553D01*
X017287Y028553D02*
X017287Y029153D01*
X016287Y029153D02*
X016287Y028553D01*
X014287Y028553D02*
X014287Y029153D01*
X013287Y029153D02*
X013287Y028553D01*
X012287Y028553D02*
X012287Y029153D01*
X011287Y029153D02*
X011287Y028553D01*
X009287Y028553D02*
X009287Y029153D01*
X008287Y029153D02*
X008287Y028553D01*
X007287Y028553D02*
X007287Y029153D01*
X006287Y029153D02*
X006287Y028553D01*
X004287Y028553D02*
X004287Y029153D01*
X003287Y029153D02*
X003287Y028553D01*
X002287Y028553D02*
X002287Y029153D01*
X001287Y029153D02*
X001287Y028553D01*
X001287Y024153D02*
X001287Y023553D01*
X002287Y023553D02*
X002287Y024153D01*
X003287Y024153D02*
X003287Y023553D01*
X004287Y023553D02*
X004287Y024153D01*
X006287Y024153D02*
X006287Y023553D01*
X007287Y023553D02*
X007287Y024153D01*
X008287Y024153D02*
X008287Y023553D01*
X009287Y023553D02*
X009287Y024153D01*
X011287Y024153D02*
X011287Y023553D01*
X012287Y023553D02*
X012287Y024153D01*
X013287Y024153D02*
X013287Y023553D01*
X014287Y023553D02*
X014287Y024153D01*
X016287Y024153D02*
X016287Y023553D01*
X017287Y023553D02*
X017287Y024153D01*
X018287Y024153D02*
X018287Y023553D01*
X019287Y023553D02*
X019287Y024153D01*
X021287Y024153D02*
X021287Y023553D01*
X022287Y023553D02*
X022287Y024153D01*
X023287Y024153D02*
X023287Y023553D01*
X024287Y023553D02*
X024287Y024153D01*
X026287Y024153D02*
X026287Y023553D01*
X027287Y023553D02*
X027287Y024153D01*
X028287Y024153D02*
X028287Y023553D01*
X029287Y023553D02*
X029287Y024153D01*
X020287Y009153D02*
X020287Y008553D01*
X019287Y008553D02*
X019287Y009153D01*
X018287Y009153D02*
X018287Y008553D01*
X018287Y007153D02*
X018287Y006553D01*
X019287Y006553D02*
X019287Y007153D01*
X020287Y007153D02*
X020287Y006553D01*
X016287Y006553D02*
X016287Y007153D01*
X015287Y007153D02*
X015287Y006553D01*
X014287Y006553D02*
X014287Y007153D01*
X014287Y008553D02*
X014287Y009153D01*
X015287Y009153D02*
X015287Y008553D01*
X016287Y008553D02*
X016287Y009153D01*
X012287Y009153D02*
X012287Y008553D01*
X011287Y008553D02*
X011287Y009153D01*
X010287Y009153D02*
X010287Y008553D01*
X010287Y007153D02*
X010287Y006553D01*
X011287Y006553D02*
X011287Y007153D01*
X012287Y007153D02*
X012287Y006553D01*
D13*
X012287Y021853D03*
X013287Y021853D03*
X017287Y021853D03*
X018287Y021853D03*
X022287Y021853D03*
X023287Y021853D03*
X027287Y021853D03*
X028287Y021853D03*
X028287Y026853D03*
X027287Y026853D03*
X023287Y026853D03*
X022287Y026853D03*
X018287Y026853D03*
X017287Y026853D03*
X013287Y026853D03*
X012287Y026853D03*
X008287Y026853D03*
X007287Y026853D03*
X003287Y026853D03*
X002287Y026853D03*
X002287Y021853D03*
X003287Y021853D03*
X007287Y021853D03*
X008287Y021853D03*
D14*
X001287Y006113D02*
X001287Y005593D01*
X002287Y005593D02*
X002287Y006113D01*
X003287Y006113D02*
X003287Y005593D01*
X004287Y005593D02*
X004287Y006113D01*
X005287Y006113D02*
X005287Y005593D01*
X006287Y005593D02*
X006287Y006113D01*
X007287Y006113D02*
X007287Y005593D01*
X008287Y005593D02*
X008287Y006113D01*
X008787Y004613D02*
X008787Y004093D01*
X009787Y004093D02*
X009787Y004613D01*
X010787Y004613D02*
X010787Y004093D01*
X011787Y004093D02*
X011787Y004613D01*
X012787Y004613D02*
X012787Y004093D01*
X013787Y004093D02*
X013787Y004613D01*
X014787Y004613D02*
X014787Y004093D01*
X015787Y004093D02*
X015787Y004613D01*
X016787Y004613D02*
X016787Y004093D01*
X017787Y004093D02*
X017787Y004613D01*
X018787Y004613D02*
X018787Y004093D01*
X019787Y004093D02*
X019787Y004613D01*
X020787Y004613D02*
X020787Y004093D01*
X021787Y004093D02*
X021787Y004613D01*
X022287Y005593D02*
X022287Y006113D01*
X023287Y006113D02*
X023287Y005593D01*
X024287Y005593D02*
X024287Y006113D01*
X025287Y006113D02*
X025287Y005593D01*
X026287Y005593D02*
X026287Y006113D01*
X027287Y006113D02*
X027287Y005593D01*
X028287Y005593D02*
X028287Y006113D01*
X029287Y006113D02*
X029287Y005593D01*
X029287Y008593D02*
X029287Y009113D01*
X029287Y010093D02*
X029287Y010613D01*
X028287Y010613D02*
X028287Y010093D01*
X028287Y009113D02*
X028287Y008593D01*
X027287Y008593D02*
X027287Y009113D01*
X027287Y010093D02*
X027287Y010613D01*
X026287Y010613D02*
X026287Y010093D01*
X026287Y009113D02*
X026287Y008593D01*
X025287Y008593D02*
X025287Y009113D01*
X025287Y010093D02*
X025287Y010613D01*
X024287Y010613D02*
X024287Y010093D01*
X024287Y009113D02*
X024287Y008593D01*
X023287Y008593D02*
X023287Y009113D01*
X023287Y010093D02*
X023287Y010613D01*
X022287Y010613D02*
X022287Y010093D01*
X022287Y009113D02*
X022287Y008593D01*
X022287Y013093D02*
X022287Y013613D01*
X023287Y013613D02*
X023287Y013093D01*
X024287Y013093D02*
X024287Y013613D01*
X025287Y013613D02*
X025287Y013093D01*
X026287Y013093D02*
X026287Y013613D01*
X027287Y013613D02*
X027287Y013093D01*
X028287Y013093D02*
X028287Y013613D01*
X029287Y013613D02*
X029287Y013093D01*
X021787Y001613D02*
X021787Y001093D01*
X020787Y001093D02*
X020787Y001613D01*
X019787Y001613D02*
X019787Y001093D01*
X018787Y001093D02*
X018787Y001613D01*
X017787Y001613D02*
X017787Y001093D01*
X016787Y001093D02*
X016787Y001613D01*
X015787Y001613D02*
X015787Y001093D01*
X014787Y001093D02*
X014787Y001613D01*
X013787Y001613D02*
X013787Y001093D01*
X012787Y001093D02*
X012787Y001613D01*
X011787Y001613D02*
X011787Y001093D01*
X010787Y001093D02*
X010787Y001613D01*
X009787Y001613D02*
X009787Y001093D01*
X008787Y001093D02*
X008787Y001613D01*
X008287Y008593D02*
X008287Y009113D01*
X008287Y010093D02*
X008287Y010613D01*
X007287Y010613D02*
X007287Y010093D01*
X007287Y009113D02*
X007287Y008593D01*
X006287Y008593D02*
X006287Y009113D01*
X006287Y010093D02*
X006287Y010613D01*
X005287Y010613D02*
X005287Y010093D01*
X005287Y009113D02*
X005287Y008593D01*
X004287Y008593D02*
X004287Y009113D01*
X004287Y010093D02*
X004287Y010613D01*
X003287Y010613D02*
X003287Y010093D01*
X003287Y009113D02*
X003287Y008593D01*
X002287Y008593D02*
X002287Y009113D01*
X002287Y010093D02*
X002287Y010613D01*
X001287Y010613D02*
X001287Y010093D01*
X001287Y009113D02*
X001287Y008593D01*
X001287Y013093D02*
X001287Y013613D01*
X002287Y013613D02*
X002287Y013093D01*
X003287Y013093D02*
X003287Y013613D01*
X004287Y013613D02*
X004287Y013093D01*
X005287Y013093D02*
X005287Y013613D01*
X006287Y013613D02*
X006287Y013093D01*
X007287Y013093D02*
X007287Y013613D01*
X008287Y013613D02*
X008287Y013093D01*
D15*
X010787Y014353D03*
X011787Y014353D03*
X012787Y014353D03*
X013787Y014353D03*
X014787Y014353D03*
X015787Y014353D03*
X016787Y014353D03*
X017787Y014353D03*
X018787Y014353D03*
X019787Y014353D03*
X019787Y019353D03*
X018787Y019353D03*
X017787Y019353D03*
X016787Y019353D03*
X015787Y019353D03*
X014787Y019353D03*
X013787Y019353D03*
X012787Y019353D03*
X011787Y019353D03*
X010787Y019353D03*
D16*
X009787Y018353D02*
X007787Y018353D01*
X007787Y018853D02*
X012787Y018853D01*
X013287Y018353D01*
X019787Y018353D01*
X020787Y019353D01*
X026287Y019353D01*
X026787Y019353D02*
X026787Y021353D01*
X026287Y021353D01*
X025787Y020853D01*
X024787Y020853D02*
X023287Y020853D01*
X022287Y021853D01*
X021787Y021853D02*
X021787Y022353D01*
X022787Y022353D01*
X023287Y021853D01*
X022787Y022853D02*
X023287Y023353D01*
X023287Y023853D01*
X022787Y022853D02*
X020787Y022853D01*
X020287Y022353D02*
X014287Y022353D01*
X013787Y022353D02*
X014287Y021853D01*
X014787Y021853D01*
X017287Y021853D01*
X017787Y022853D02*
X018287Y023353D01*
X018287Y023853D01*
X017787Y022853D02*
X015787Y022853D01*
X015787Y020853D02*
X016787Y020853D01*
X015787Y020853D02*
X015287Y020353D01*
X009287Y020353D01*
X008787Y020353D02*
X005787Y020353D01*
X005287Y019853D01*
X005787Y019853D02*
X004787Y018853D01*
X002287Y019353D01*
X000787Y019853D01*
X000787Y014353D01*
X001787Y014353D01*
X002287Y013853D01*
X002287Y013353D01*
X003287Y012353D02*
X003287Y010353D01*
X002287Y010353D01*
X001287Y010353D01*
X003287Y012353D02*
X004287Y012353D01*
X004787Y012853D01*
X004787Y015353D01*
X006287Y015353D01*
X007287Y016353D01*
X008287Y016353D01*
X008287Y016603D01*
X008787Y015853D02*
X009787Y016853D01*
X019287Y016853D01*
X019787Y016353D01*
X020787Y015853D02*
X021787Y016853D01*
X023287Y016853D01*
X022787Y015853D02*
X021787Y015853D01*
X020787Y014853D01*
X021287Y014853D02*
X020287Y013853D01*
X015287Y013853D01*
X014787Y013353D02*
X014287Y013853D01*
X014287Y014853D01*
X010287Y014853D01*
X009287Y013853D01*
X008287Y013853D01*
X008287Y013353D01*
X007787Y014353D02*
X008287Y014853D01*
X009787Y014853D01*
X010787Y015853D01*
X020787Y015853D01*
X021287Y014853D02*
X023787Y014853D01*
X023787Y015353D02*
X024287Y014853D01*
X026287Y014853D01*
X026787Y014853D02*
X026287Y015353D01*
X025787Y015353D01*
X024287Y016853D01*
X024287Y017353D02*
X013787Y017353D01*
X013787Y017853D02*
X025287Y017853D01*
X026787Y019353D01*
X025287Y019853D02*
X024787Y020353D01*
X018787Y020353D01*
X018287Y020853D02*
X019787Y020853D01*
X020787Y020853D02*
X021787Y021853D01*
X021287Y021853D02*
X020787Y021353D01*
X006287Y021353D01*
X004787Y022853D01*
X005787Y022853D02*
X007287Y022853D01*
X007787Y023353D01*
X008287Y023353D01*
X008287Y023853D01*
X008287Y022853D02*
X007787Y022853D01*
X007287Y022353D01*
X006787Y022353D01*
X006287Y021853D01*
X007287Y021853D02*
X007787Y022353D01*
X010287Y022353D01*
X010287Y021853D01*
X009787Y021853D01*
X010287Y021853D02*
X012287Y021853D01*
X012787Y022853D02*
X010787Y022853D01*
X011287Y023353D02*
X011287Y023853D01*
X011287Y024353D01*
X010787Y024853D01*
X013787Y024853D01*
X013787Y022353D01*
X013287Y022853D02*
X013287Y021853D01*
X013287Y022853D02*
X012787Y023353D01*
X012287Y023353D01*
X012287Y023853D01*
X011287Y023353D02*
X010287Y023353D01*
X010287Y022353D01*
X010787Y020853D02*
X012287Y020853D01*
X012287Y019853D02*
X005787Y019853D01*
X005787Y020853D02*
X008287Y020853D01*
X007787Y018853D02*
X007287Y018353D01*
X007287Y017353D02*
X013287Y017353D01*
X013787Y017853D01*
X012787Y017853D02*
X006287Y017853D01*
X005787Y018353D01*
X005287Y016353D02*
X003787Y014853D01*
X005287Y013853D02*
X005287Y013353D01*
X005287Y013853D02*
X006787Y015353D01*
X009787Y015353D01*
X010787Y016353D01*
X015787Y016353D01*
X016787Y016353D02*
X017787Y016353D01*
X017787Y015353D02*
X013787Y015353D01*
X013287Y013853D02*
X012787Y013353D01*
X009287Y013353D01*
X010287Y012853D02*
X013787Y012853D01*
X014287Y012353D01*
X026787Y012353D01*
X027287Y011853D01*
X027787Y011353D02*
X023287Y011353D01*
X023287Y010853D02*
X022787Y011353D01*
X021287Y011353D01*
X020287Y011353D02*
X019787Y011853D01*
X017787Y011853D01*
X016787Y011853D01*
X015787Y011853D02*
X013287Y011853D01*
X013787Y012353D02*
X007787Y012353D01*
X006287Y010853D01*
X006287Y010353D01*
X007787Y009353D02*
X007787Y007353D01*
X009287Y007353D01*
X008787Y007853D02*
X010787Y007853D01*
X012287Y007853D01*
X012787Y007353D01*
X013787Y007353D01*
X013787Y005853D01*
X014287Y006353D02*
X014287Y006853D01*
X014287Y006353D02*
X014787Y005853D01*
X015787Y005853D01*
X017287Y005853D01*
X017787Y006353D01*
X018287Y006353D01*
X018287Y006853D01*
X018787Y007853D02*
X013287Y007853D01*
X015287Y008853D02*
X015287Y009353D01*
X014787Y009853D01*
X018787Y009853D01*
X019287Y009353D01*
X019287Y008853D01*
X019287Y007853D02*
X020287Y007853D01*
X021287Y006853D01*
X028787Y006853D01*
X029287Y006353D01*
X029287Y005853D01*
X028287Y007353D02*
X026787Y007353D01*
X026287Y007353D02*
X023787Y007353D01*
X022787Y008353D01*
X022787Y009853D01*
X022287Y009853D01*
X022287Y010353D01*
X022287Y010853D01*
X018287Y010853D01*
X017287Y010853D01*
X016287Y010853D02*
X014287Y010853D01*
X013787Y011353D01*
X011287Y011353D01*
X009287Y009353D01*
X008787Y009353D02*
X008287Y009353D01*
X008287Y008853D01*
X008287Y008353D01*
X008787Y007853D01*
X008787Y009353D02*
X008787Y010853D01*
X008287Y011353D01*
X008287Y010353D02*
X008287Y009853D01*
X007787Y009353D01*
X010287Y009353D02*
X010287Y008853D01*
X010287Y009353D02*
X011287Y010353D01*
X014287Y010353D01*
X014787Y009853D02*
X011787Y009853D01*
X011287Y009353D01*
X011287Y008853D01*
X010787Y007853D02*
X011287Y007353D01*
X011287Y006853D01*
X010287Y006853D02*
X003787Y006853D01*
X003287Y006353D01*
X003287Y005853D01*
X002287Y005853D02*
X001287Y005853D01*
X004287Y008853D02*
X004287Y009353D01*
X003787Y009853D01*
X003787Y011853D01*
X006287Y005853D02*
X006287Y004353D01*
X008287Y002353D01*
X012287Y002353D01*
X012787Y001853D02*
X012787Y001353D01*
X012787Y001853D02*
X013287Y002353D01*
X017287Y002353D01*
X018287Y003353D01*
X023287Y003353D01*
X023787Y003853D01*
X023787Y004353D02*
X024787Y004353D01*
X024787Y003353D01*
X025287Y002853D02*
X018787Y002853D01*
X017787Y001853D01*
X017787Y001353D01*
X018787Y001353D02*
X018787Y001853D01*
X019287Y002353D01*
X023287Y002353D01*
X022787Y001353D02*
X029787Y001353D01*
X029787Y010853D01*
X029287Y011353D01*
X028787Y011353D01*
X027287Y012853D01*
X027287Y013353D01*
X026787Y014853D02*
X028287Y014853D01*
X028787Y014853D02*
X029787Y015853D01*
X029787Y019853D01*
X029287Y019853D01*
X029787Y020853D02*
X029787Y022353D01*
X028787Y022353D01*
X028787Y026353D01*
X029287Y026353D01*
X029787Y025853D01*
X028787Y026353D02*
X027787Y026353D01*
X027287Y026853D01*
X027787Y027853D02*
X028287Y028353D01*
X028287Y028853D01*
X027787Y027853D02*
X025787Y027853D01*
X024787Y027353D02*
X021287Y027353D01*
X021287Y028853D01*
X022287Y027853D02*
X022787Y028353D01*
X023287Y028353D01*
X023287Y028853D01*
X024787Y027353D02*
X024787Y025853D01*
X025787Y025853D02*
X026287Y025353D01*
X026787Y025353D01*
X028287Y023853D02*
X028287Y023353D01*
X027787Y022853D01*
X025787Y022853D01*
X025287Y023853D02*
X023787Y025353D01*
X023287Y025353D01*
X023287Y025853D02*
X020787Y025853D01*
X020287Y025353D01*
X018287Y025353D01*
X018287Y025853D02*
X019787Y025853D01*
X018787Y026353D02*
X022787Y026353D01*
X023287Y025853D02*
X023287Y026853D01*
X022287Y026853D02*
X021287Y026853D01*
X021287Y027353D01*
X021787Y024853D02*
X019287Y024853D01*
X018787Y024853D02*
X015287Y024853D01*
X014787Y025353D01*
X005287Y025353D01*
X005787Y025853D02*
X006287Y026353D01*
X006787Y026353D01*
X007787Y026353D01*
X008287Y026853D01*
X008787Y026353D02*
X009287Y026853D01*
X010787Y026853D01*
X011287Y027353D02*
X007787Y027353D01*
X007787Y027853D02*
X008287Y028353D01*
X008287Y028853D01*
X007787Y027853D02*
X005787Y027853D01*
X005787Y026853D02*
X007287Y026853D01*
X005787Y026853D02*
X004787Y025853D01*
X003287Y025853D01*
X002287Y026853D01*
X001287Y026853D01*
X001287Y023853D01*
X000787Y022853D02*
X002787Y022853D01*
X003287Y023353D01*
X003287Y023853D01*
X004787Y024853D02*
X006787Y024853D01*
X006287Y024353D01*
X006287Y023853D01*
X006787Y024853D02*
X010787Y024853D01*
X012287Y025853D02*
X014787Y025853D01*
X015287Y027353D02*
X012787Y027353D01*
X012287Y027353D02*
X012287Y026853D01*
X012287Y027353D02*
X011287Y028353D01*
X011287Y028853D01*
X012287Y027853D02*
X012787Y028353D01*
X013287Y028353D01*
X013287Y028853D01*
X016287Y028853D02*
X016287Y026853D01*
X017287Y026853D01*
X018287Y025853D01*
X017787Y025353D02*
X016787Y026353D01*
X009287Y026353D01*
X004787Y025853D02*
X004787Y024853D01*
X002287Y027853D02*
X002787Y028353D01*
X003287Y028353D01*
X003287Y028853D01*
X001287Y028853D02*
X001287Y026853D01*
X003287Y021853D02*
X002287Y020853D01*
X000787Y020853D01*
X012287Y010853D02*
X013287Y010853D01*
X014287Y011353D02*
X019787Y011353D01*
X019787Y010353D02*
X022287Y007853D01*
X022787Y007853D01*
X023287Y008353D02*
X023287Y008853D01*
X023287Y008353D02*
X023787Y007853D01*
X028787Y007853D01*
X029287Y008353D01*
X029287Y008853D01*
X028287Y010353D02*
X028287Y010853D01*
X027787Y011353D01*
X029287Y012353D02*
X029787Y012853D01*
X029787Y014853D01*
X029287Y014853D01*
X028787Y014353D02*
X029287Y013853D01*
X029287Y013353D01*
X028787Y014353D02*
X023787Y014353D01*
X023287Y013853D01*
X023287Y013353D01*
X023287Y013853D02*
X022787Y014353D01*
X021287Y014353D01*
X020287Y013353D01*
X014787Y013353D01*
X017787Y015353D02*
X018787Y014353D01*
X018287Y012853D02*
X020287Y012853D01*
X020787Y013353D01*
X022787Y015853D02*
X023287Y015353D01*
X023787Y015353D01*
X024287Y015853D01*
X025787Y015853D02*
X024287Y017353D01*
X021787Y019853D02*
X017287Y019853D01*
X018287Y018853D02*
X013287Y018853D01*
X012787Y019353D01*
X017287Y027853D02*
X017787Y028353D01*
X018287Y028353D01*
X018287Y028853D01*
X026787Y021353D02*
X027787Y021353D01*
X028287Y021853D01*
X028787Y022353D02*
X027787Y022353D01*
X027287Y021853D01*
X023287Y010853D02*
X023287Y010353D01*
X019287Y010353D02*
X015287Y010353D01*
X017287Y007353D02*
X017287Y006353D01*
X017787Y005853D02*
X020287Y005853D01*
X021787Y005353D02*
X013287Y005353D01*
X012787Y005353D02*
X011287Y005353D01*
X010787Y004853D01*
X010787Y004353D01*
X009787Y004353D02*
X009787Y004853D01*
X010787Y005853D01*
X012287Y005853D01*
X012787Y004353D02*
X012787Y003853D01*
X012287Y003353D01*
X007787Y003353D01*
X008787Y002853D02*
X016287Y002853D01*
X016287Y003353D02*
X013287Y003353D01*
X013787Y004353D02*
X014787Y004353D01*
X016287Y003353D02*
X016787Y003853D01*
X016787Y004353D01*
X016787Y003353D02*
X017287Y002853D01*
X021787Y005353D02*
X022787Y004353D01*
X022787Y004853D02*
X026787Y004853D01*
X010287Y005853D02*
X009287Y005853D01*
X008287Y004853D01*
X007787Y004853D01*
X007287Y005353D01*
X007287Y005853D01*
D17*
X009287Y007353D03*
X010287Y005853D03*
X012287Y005853D03*
X012787Y005353D03*
X013287Y005353D03*
X013787Y005853D03*
X013287Y007853D03*
X015787Y005853D03*
X017287Y006353D03*
X017787Y005853D03*
X017287Y007353D03*
X018787Y007853D03*
X019287Y007853D03*
X020287Y005853D03*
X022787Y004853D03*
X022787Y004353D03*
X023787Y004353D03*
X024787Y003353D03*
X025287Y002853D03*
X023287Y002353D03*
X022787Y001353D03*
X026787Y004853D03*
X026787Y007353D03*
X026287Y007353D03*
X028287Y007353D03*
X027287Y011853D03*
X029287Y012353D03*
X029287Y014853D03*
X028787Y014853D03*
X028287Y014853D03*
X026287Y014853D03*
X025787Y015853D03*
X024287Y015853D03*
X024287Y016853D03*
X023287Y016853D03*
X023787Y014853D03*
X020787Y014853D03*
X020787Y013353D03*
X021287Y011353D03*
X020287Y011353D03*
X019787Y011353D03*
X019787Y010353D03*
X019287Y010353D03*
X018287Y010853D03*
X017787Y011853D03*
X018287Y012853D03*
X016287Y010853D03*
X015787Y011853D03*
X015287Y010353D03*
X014287Y010353D03*
X014287Y011353D03*
X013787Y012353D03*
X013287Y013853D03*
X013787Y015353D03*
X015287Y013853D03*
X015787Y016353D03*
X016787Y016353D03*
X017787Y016353D03*
X019787Y016353D03*
X018287Y018853D03*
X017287Y019853D03*
X016787Y020853D03*
X018287Y020853D03*
X018787Y020353D03*
X020287Y022353D03*
X021287Y021853D03*
X021787Y019853D03*
X025287Y019853D03*
X026287Y019353D03*
X029287Y019853D03*
X025287Y023853D03*
X026787Y025353D03*
X023287Y025353D03*
X022787Y026353D03*
X022287Y027853D03*
X021787Y024853D03*
X019287Y024853D03*
X018787Y024853D03*
X018287Y025353D03*
X017787Y025353D03*
X018787Y026353D03*
X017287Y027853D03*
X015287Y027353D03*
X012787Y027353D03*
X012287Y027853D03*
X011287Y027353D03*
X010787Y026853D03*
X012287Y025853D03*
X009287Y026353D03*
X008787Y026353D03*
X007787Y027353D03*
X006787Y026353D03*
X005287Y025353D03*
X008287Y022853D03*
X009787Y021853D03*
X009287Y020353D03*
X008787Y020353D03*
X008287Y020853D03*
X006287Y021853D03*
X005287Y019853D03*
X007287Y018353D03*
X007787Y018353D03*
X007287Y017353D03*
X005287Y016353D03*
X003787Y014853D03*
X003787Y011853D03*
X007787Y014353D03*
X009287Y013353D03*
X010287Y012853D03*
X008287Y011353D03*
X009287Y009353D03*
X012287Y010853D03*
X013787Y017353D03*
X012787Y017853D03*
X012287Y019853D03*
X012287Y020853D03*
X012787Y022853D03*
X014287Y022353D03*
X014787Y021853D03*
X023287Y011353D03*
X022787Y007853D03*
X017287Y002853D03*
X016787Y003353D03*
X016287Y002853D03*
X013287Y003353D03*
X012287Y002353D03*
X008787Y002853D03*
X007787Y003353D03*
X002287Y027853D03*
M02*
